<svg xmlns="http://www.w3.org/2000/svg" version="1.1" xmlns:xlink="http://www.w3.org/1999/xlink" xmlns:svgjs="http://svgjs.dev/svgjs" viewBox="0 0 800 800"><defs><linearGradient x1="50%" y1="0%" x2="50%" y2="100%" id="ffflurry-grad" gradientTransform="rotate(270)"><stop stop-color="#f0f0f2" stop-opacity="1" offset="0%"></stop><stop stop-color="#224a59" stop-opacity="1" offset="45%"></stop><stop stop-color="hsl(167, 52%, 78%)" stop-opacity="1" offset="100%"></stop></linearGradient></defs><rect width="100%" height="100%" fill="#f0f0f2"></rect><g fill="url(#ffflurry-grad)"><rect width="300" height="2" x="444" y="50" rx="1" transform="rotate(56, 594, 51)"></rect><rect width="454" height="2" x="100" y="215" rx="1" transform="rotate(56, 327, 216)"></rect><rect width="236" height="2" x="615" y="762" rx="1" transform="rotate(56, 733, 763)"></rect><rect width="670" height="2" x="273" y="173" rx="1" transform="rotate(56, 608, 174)"></rect><rect width="739" height="2" x="23.5" y="695" rx="1" transform="rotate(56, 393, 696)"></rect><rect width="481" height="2" x="-73.5" y="88" rx="1" transform="rotate(56, 167, 89)"></rect><rect width="359" height="2" x="29.5" y="176" rx="1" transform="rotate(56, 209, 177)"></rect><rect width="399" height="2" x="93.5" y="51" rx="1" transform="rotate(56, 293, 52)"></rect><rect width="790" height="2" x="-332" y="207" rx="1" transform="rotate(56, 63, 208)"></rect><rect width="259" height="2" x="209.5" y="532" rx="1" transform="rotate(56, 339, 533)"></rect><rect width="102" height="2" x="2" y="452" rx="1" transform="rotate(56, 53, 453)"></rect><rect width="574" height="2" x="246" y="587" rx="1" transform="rotate(56, 533, 588)"></rect><rect width="211" height="2" x="405.5" y="736" rx="1" transform="rotate(56, 511, 737)"></rect><rect width="637" height="2" x="140.5" y="328" rx="1" transform="rotate(56, 459, 329)"></rect><rect width="307" height="2" x="376.5" y="449" rx="1" transform="rotate(56, 530, 450)"></rect><rect width="518" height="2" x="408" y="672" rx="1" transform="rotate(56, 667, 673)"></rect><rect width="118" height="2" x="86" y="25" rx="1" transform="rotate(56, 145, 26)"></rect><rect width="611" height="2" x="-217.5" y="739" rx="1" transform="rotate(56, 88, 740)"></rect><rect width="316" height="2" x="609" y="675" rx="1" transform="rotate(56, 767, 676)"></rect><rect width="211" height="2" x="-16.5" y="608" rx="1" transform="rotate(56, 89, 609)"></rect><rect width="234" height="2" x="336" y="40" rx="1" transform="rotate(56, 453, 41)"></rect><rect width="913" height="2" x="251.5" y="554" rx="1" transform="rotate(56, 708, 555)"></rect><rect width="364" height="2" x="530" y="373" rx="1" transform="rotate(56, 712, 374)"></rect><rect width="356" height="2" x="438" y="740" rx="1" transform="rotate(56, 616, 741)"></rect><rect width="340" height="2" x="-35" y="322" rx="1" transform="rotate(56, 135, 323)"></rect><rect width="58" height="2" x="392" y="127" rx="1" transform="rotate(56, 421, 128)"></rect><rect width="917" height="2" x="-144.5" y="372" rx="1" transform="rotate(56, 314, 373)"></rect><rect width="185" height="2" x="95.5" y="485" rx="1" transform="rotate(56, 188, 486)"></rect><rect width="296" height="2" x="-99" y="67" rx="1" transform="rotate(56, 49, 68)"></rect><rect width="171" height="2" x="459.5" y="252" rx="1" transform="rotate(56, 545, 253)"></rect><rect width="939" height="2" x="-221.5" y="699" rx="1" transform="rotate(56, 248, 700)"></rect><rect width="174" height="2" x="649" y="129" rx="1" transform="rotate(56, 736, 130)"></rect></g></svg>